<?xml version="1.0" encoding="UTF-8" standalone="no"?>
<!-- Created with Inkscape (http://www.inkscape.org/) -->

<svg
   width="210mm"
   height="297mm"
   viewBox="0 0 210 297"
   version="1.1"
   id="svg317"
   xml:space="preserve"
   inkscape:version="1.2.2 (732a01da63, 2022-12-09)"
   sodipodi:docname="dibujo.svg"
   xmlns:inkscape="http://www.inkscape.org/namespaces/inkscape"
   xmlns:sodipodi="http://sodipodi.sourceforge.net/DTD/sodipodi-0.dtd"
   xmlns:xlink="http://www.w3.org/1999/xlink"
   xmlns="http://www.w3.org/2000/svg"
   xmlns:svg="http://www.w3.org/2000/svg"><sodipodi:namedview
     id="namedview319"
     pagecolor="#ffffff"
     bordercolor="#000000"
     borderopacity="0.25"
     inkscape:showpageshadow="2"
     inkscape:pageopacity="0.0"
     inkscape:pagecheckerboard="0"
     inkscape:deskcolor="#d1d1d1"
     inkscape:document-units="mm"
     showgrid="false"
     inkscape:zoom="0.46769781"
     inkscape:cx="397.69269"
     inkscape:cy="585.84837"
     inkscape:window-width="1366"
     inkscape:window-height="705"
     inkscape:window-x="-8"
     inkscape:window-y="-8"
     inkscape:window-maximized="1"
     inkscape:current-layer="layer1" /><defs
     id="defs314" /><g
     inkscape:label="Capa 1"
     inkscape:groupmode="layer"
     id="layer1"><image
       width="120.06572"
       height="100.83142"
       preserveAspectRatio="none"
       xlink:href="pngtree-slice-of-pizza-vector-illustration-design-with-delicious-melted-cheese-png-image_8659030.png"
       id="image329"
       x="11.529999"
       y="13.22714" /><path
       style="fill:#000000;stroke-width:0.264583"
       d="m 145.95429,185.55428 c -16.40572,0 -32.81143,0 -49.217148,0 -4.714287,0 -9.428572,0 -14.142857,0 -1.508572,0 -3.017144,0 -4.525714,0 -0.565716,0 -2.262857,0 -1.697143,0 2.074286,0 4.148571,0 6.222857,0"
       id="path333" /><path
       style="fill:#c87137;stroke-width:0.264583"
       d="m 65.622857,178.76571 c 33.377142,0 66.754283,0 100.131423,0 -9.91692,0.99234 -20.00543,0.56572 -29.98285,0.56572 -3.37944,0 -7.34266,0.37843 -10.74857,0 -1.54549,-0.17172 -3.00091,-0.82647 -4.52572,-1.13143 -3.2455,-0.6491 -6.90556,0.40966 -10.18285,0 -6.89168,-0.86146 -13.935751,-0.56571 -20.931433,-0.56571 -7.694818,0 -16.361955,-0.9823 -23.76,1.13142 z"
       id="path639" /><path
       style="fill:#c87137;stroke-width:0.264583"
       d="M 65.057141,177.63428 C 64.491427,176.88 64.144503,175.89443 63.36,175.37143 c -0.470704,-0.31381 -1.171892,0.2101 -1.697143,0 -2.984804,0.98386 -0.523304,-1.39308 -1.13143,-1.69715 -0.337325,-0.16866 -0.794102,0.16867 -1.131427,0 -0.688856,-0.34443 -1.975003,-2.55071 -1.13143,-3.39428 0.13334,-0.13334 0.386821,0.0596 0.565714,0 4.097705,-1.3659 -0.891908,0.16309 1.697143,-1.13143 0.619003,-0.3095 2.611393,-0.30475 3.394287,-0.56572 1.697143,-0.56571 3.416387,-1.069 5.091427,-1.69714 0.249701,-0.0936 0.312719,-0.48138 0.565716,-0.56571 0.357788,-0.11926 0.794102,0.16866 1.131427,0 0.168664,-0.0843 0,-0.37715 0,-0.56572 0.377143,-0.18857 0.731409,-0.43237 1.13143,-0.56571 0.357788,-0.11926 0.864748,0.26668 1.131427,0 0.298159,-0.29816 0.204145,-0.91449 0.565716,-1.13143 0.824503,-0.4947 2.028529,-0.0324 2.828571,-0.56571 0.443783,-0.29586 0.687647,-0.83558 1.131427,-1.13143 1.180251,-0.78683 4.421627,-2.21081 5.657143,-2.82857 0.337328,-0.16867 0.773639,0.11926 1.13143,0 1.132044,-0.37735 3.613285,-1.24093 4.525714,-1.69715 1.615488,-0.80774 3.43005,-2.27477 5.091427,-2.82857 0.357791,-0.11926 0.829715,0.22629 1.13143,0 0.543922,-0.40794 0.548415,-1.34733 1.131427,-1.69714 0.51539,-1.01198 1.588204,0.33733 2.26286,0 1.296244,-0.64812 3.610674,-0.67391 4.525714,-1.13143 0.0701,-0.035 0.65898,-1.46092 1.13143,-1.69714 0.55388,-0.27694 1.09972,-0.83272 1.69714,-1.13143 0.67539,-0.33769 3.15865,-0.59719 3.96,-1.13143 0.83477,-0.55651 1.83658,-1.93219 2.82857,-2.26285 0.7059,-0.23531 2.21464,0.40928 2.82857,0 0.44379,-0.29586 0.68765,-0.83558 1.13143,-1.13143 0.36423,-0.24282 1.27479,0.14078 1.69714,0 0.64502,-0.21501 1.05213,-0.91643 1.69715,-1.13143 0.3685,-0.12284 2.51181,0.31676 2.82857,0 0.29816,-0.29816 0.26755,-0.83328 0.56571,-1.13143 1.23476,-1.23476 3.58677,-0.75527 5.09143,-1.13143 1.22721,-0.3068 2.17798,-1.34963 3.39429,-1.69714 0.54394,-0.15542 1.17189,0.2101 1.69714,0 0.49521,-0.19809 0.65438,-0.8929 1.13143,-1.13143 0.33733,-0.16867 0.77364,0.11926 1.13143,0 1.39524,-0.46508 2.79138,-1.11284 3.96,-1.69714 0.83621,-0.41811 2.65932,0.55122 3.39428,0 0.54392,-0.40795 0.65067,-1.21638 1.13143,-1.69715 0.35884,-0.35884 1.79185,0.23551 2.26286,0 0.81677,-0.40838 1.44608,-0.72304 2.26286,-1.13143 0.45257,-0.22628 1.24457,0.22629 1.69714,0 0.16866,-0.0843 -0.13334,-0.43237 0,-0.56571 0.48977,-0.48977 2.17042,0.32908 2.82857,0 1.10724,-0.55362 2.33226,-1.16613 3.39429,-1.69714 0.33732,-0.16867 0.86474,0.26668 1.13142,0 1.32577,-1.32577 -0.12307,-3.14814 0.56572,-4.52572 0.47705,-0.9541 1.67114,-1.37529 2.26286,-2.26286 0.2092,-0.3138 -0.16867,-0.7941 0,-1.13142 0.70465,-1.40931 2.26859,-1.70001 3.39428,-2.26286 1.15271,-0.57635 7.55843,-0.36157 8.48571,0.56571 0.26887,0.26887 0.86257,1.994 1.13143,2.26286 0.13334,0.13334 0.43238,-0.13334 0.56572,0 0.13334,0.13334 -0.16867,0.48138 0,0.56571 0.33733,0.16867 0.7941,-0.16866 1.13143,0 1.43115,0.71558 2.26285,2.26286 3.39428,3.39429 1.12072,-0.0565 0.26756,0.83327 0.56572,1.13143 0.13334,0.13334 0.43237,-0.13334 0.56571,0 0.15799,0.15798 -0.19923,7.88804 0.56571,10.18286 0.32541,0.97621 -0.45454,2.48518 0,3.39428 0.57629,1.15256 0.72239,1.19242 1.13143,2.82858 0.21267,0.85065 -0.47387,2.68347 0,3.39428 0.72069,1.08104 1.31609,1.68541 1.69715,2.82857 0.31988,0.95965 -0.44856,2.49718 0,3.39429 0.11926,0.23852 0.50103,0.30699 0.56571,0.56571 0.30113,1.20453 0.27909,10.19794 0,11.31429 -0.37763,1.51053 -1.49293,3.24251 -2.26286,4.52571 -0.48719,0.81199 -0.58945,2.45934 -1.69714,2.82857 -0.7967,0.26557 -2.34518,0.16465 -2.82857,1.13143 -0.0843,0.16866 0.13334,0.43237 0,0.56571 -0.42166,0.42166 -1.27548,0.14406 -1.69714,0.56572 -0.13334,0.13334 0.17889,0.50608 0,0.56571 -0.63817,0.71558 -1.54728,-0.23852 -2.26286,0 -1.20443,0.40148 -2.18986,0.72995 -3.39429,1.13143 -0.64099,0.21367 -1.66338,-0.29973 -2.26285,0 -1.31603,0.65801 0.20719,1.69714 -2.82857,1.69714"
       id="path641" /><path
       style="fill:#ffff00;stroke-width:0.264583"
       d="m 166.88571,182.16 c 0,-1.55595 -1.07446,-2.14893 -1.69714,-3.39429 -0.46721,-0.93448 0.3138,-1.09017 -0.56571,-2.26286 -2.66456,-3.55274 0.50593,1.78609 -2.26286,-2.82857 -0.40002,-0.6667 -0.13444,-1.61593 -0.56572,-2.26285 -0.23389,-0.35085 -0.87843,-0.22839 -1.13142,-0.56572 -0.26201,-0.34934 -1.46187,-2.8061 -1.69715,-3.39428 -1.42316,-3.5579 -1.13143,-6.9865 -1.13143,-10.74857 0,-7.92 0,-15.84 0,-23.76001 -1.50857,1.13143 -3.25149,2.00423 -4.52571,3.39429 -0.85477,0.93249 -1.01801,2.32708 -1.69714,3.39429 -0.64825,1.01867 -1.50857,1.88571 -2.26286,2.82857 -0.56571,1.13143 -1.02671,2.32159 -1.69714,3.39429 -0.28268,0.45228 -0.83557,0.68764 -1.13143,1.13142 -0.70168,1.05253 -0.64462,2.69261 -1.69714,3.39429 -0.3138,0.2092 -0.86475,-0.26668 -1.13143,0 -0.42166,0.42166 -0.29904,1.16378 -0.56572,1.69714 -0.45257,0.90515 -1.81028,1.35772 -2.26285,2.26286 -0.47761,0.95521 0.24783,1.74384 -0.56572,2.82857 -0.48002,0.64003 -1.54024,0.91264 -1.69714,1.69714 -0.14793,0.73964 0.28013,1.56252 0,2.26286 -0.1566,0.3915 -0.83327,0.26756 -1.13143,0.56572 -0.7775,0.7775 -0.91964,2.05107 -1.69714,2.82857 -0.48077,0.48076 -1.34734,0.54841 -1.69714,1.13143 -0.29106,0.48509 0.25299,1.19115 0,1.69714 -0.30407,0.60812 -1.27241,0.60051 -1.69715,1.13143 -1.14998,1.43748 -1.43741,2.72183 -2.26285,3.96 -2.99283,4.48924 0.0129,-0.009 -1.69715,1.13143 -2.62457,-0.48408 -0.65066,1.21637 -1.13143,1.69714 -0.37039,0.37039 -1.30733,0.35181 -1.69714,1.13143 -0.53482,1.06964 -1.30513,1.87084 -2.26286,2.82857"
       id="path708" /><path
       style="fill:#ffff00;stroke-width:0.264583"
       d="m 155.00571,133.50857 c -1.58384,0.24144 -7.8606,-0.62511 -9.05142,0.56571 -0.13335,0.13334 0.13333,0.43238 0,0.56572 -0.4485,0.44849 -2.25298,-0.2878 -2.82858,0 -1.68732,0.84366 -2.04185,1.94316 -3.96,2.26286 -0.93003,0.155 -1.98525,-0.42166 -2.82857,0 -0.47705,0.23852 -0.65437,0.8929 -1.13143,1.13142 -1.26284,0.63142 -3.20362,0.69074 -4.52571,1.13143 -1.07278,0.3576 -2.43582,1.56623 -2.82857,1.69715 -1.20038,0.40012 -2.79278,0.54781 -3.96,1.13142 -0.47705,0.23853 -0.65438,0.89291 -1.13143,1.13143 -0.16866,0.0843 -0.43238,-0.13334 -0.56572,0 -0.13334,0.13334 0.13334,0.43238 0,0.56572 -0.52153,0.52153 -3.65026,1.97104 -4.52571,2.26286 -0.35779,0.11926 -0.77364,-0.11927 -1.13143,0 -0.25299,0.0843 -0.32719,0.44645 -0.56571,0.56571 -1.61221,0.8061 -3.45674,1.01602 -5.09143,1.69714 -1.55689,0.64871 -2.98445,1.57785 -4.52572,2.26286 -0.86159,0.38293 -1.89854,-0.15501 -2.82857,0 -0.62572,0.10428 -2.28141,0.85785 -2.82857,1.13143 -1.348518,0.67425 -2.562344,2.12974 -3.959998,2.82857 -0.337328,0.16866 -0.794102,-0.16866 -1.131429,0 -1.725179,0.86259 1.034661,0.44848 -1.697144,1.13143 -1.036444,0.25911 -2.483485,-0.11739 -3.394284,0.56571 -0.640032,0.48003 -1.057111,1.21712 -1.697143,1.69714 -0.301715,0.22629 -0.781262,-0.14006 -1.13143,0 -1.174498,0.46981 -2.194224,1.29713 -3.394284,1.69715 -0.178895,0.0596 -0.377142,0 -0.565716,0 -0.942856,0.18857 -1.916382,0.26165 -2.82857,0.56571 -1.183789,0.3946 -2.127094,1.84046 -3.394287,2.26286 -1.088197,0.36273 -2.38247,0.0598 -3.394284,0.56571 -1.296591,0.6483 -1.362898,1.7743 -2.828573,2.26286 -0.886706,0.29557 -2.757207,-0.0714 -3.394284,0.56571 -0.133339,0.13334 0.133339,0.43238 0,0.56572 -1.033116,1.03311 -2.788293,1.30657 -3.96,1.69714 -0.758987,0.25299 -0.981565,1.33936 -1.697144,1.69714 -0.505989,0.253 -1.226439,-0.3138 -1.697143,0 -1.087911,0.72528 -1.740659,2.1033 -2.82857,2.82857 -0.207854,0.13857 -1.596917,-0.20045 -1.697144,0 -0.94942,1.89885 0.945174,7.16109 0,9.05143 -1.294526,2.58906 0.234474,-2.40056 -1.131427,1.69715 -0.150704,0.45211 0.319112,1.94374 0,2.26285 -0.298159,0.29816 -0.878435,0.22839 -1.131429,0.56572 -0.661464,0.88195 -2.262857,7.2681 -2.262857,8.48571 0,0.58235 -0.987227,0.70992 -0.565714,1.13143 0.566275,0.56628 3.709202,0 4.525714,0 1.065527,0 3.644831,0.44044 4.525714,0 0.481658,-0.24083 0.232005,-1.81791 0.565713,-2.26286 0.480026,-0.64003 1.217118,-1.05711 1.697143,-1.69714 0.113144,-0.15086 -0.133339,-0.43237 0,-0.56571 0.13334,-0.13334 0.432375,0.13334 0.565714,0 0.400021,-0.40002 -0.252995,-1.19116 0,-1.69715 0.08433,-0.16866 0.432374,0.13334 0.565716,0 0.480764,-0.48076 0.916424,-1.05213 1.131427,-1.69714 0.626216,-1.87865 -0.313118,-3.89948 0.565714,-5.65714 1.177184,-2.35437 -0.03905,0.60477 1.13143,-0.56572 0.266681,-0.26668 -0.266682,-0.86474 0,-1.13143 0.133339,-0.13334 0.397049,0.0843 0.565713,0 2.589054,-1.29452 -2.400562,0.23448 1.697144,-1.13142 2.394534,-0.79818 5.29383,1.53623 6.222857,3.39428 0.519271,1.03854 -0.536956,1.7259 0.565713,2.82857 0.133342,0.13334 0.481383,-0.16866 0.565716,0 0.615527,1.23106 -0.03367,5.0241 0.565714,6.22286 0.447252,0.8945 1.125585,-0.83834 2.262857,-2.82857 0.816411,-1.42872 1.210974,-1.93578 1.697143,-3.39429 0.185851,-0.55755 -0.413869,-2.4147 0,-2.82857 0.133339,-0.13334 0.481383,0.16867 0.565714,0 0.545332,-1.09066 0.199638,-3.21124 1.697143,-3.96 0.983988,-0.49199 11.773172,0 13.577141,0 2.703179,0 14.639254,-0.58882 16.405714,0 0.8806,0.29354 1.91547,1.56808 2.26286,2.26286 0.41632,0.83264 -0.0233,7.94327 -0.56572,8.48571 -0.0351,1.59291 -1.27548,0.14406 -1.69714,0.56572 -0.31965,0.31965 -0.71001,1.84144 -1.13143,2.26285 -0.13334,0.13334 -0.48138,-0.16866 -0.56571,0 -0.33733,0.67466 -0.4184,1.63526 0,2.26286 0.29585,0.44378 0.83557,0.68765 1.13143,1.13143 0.1046,0.1569 -0.13334,0.43238 0,0.56572 0.85133,0.85133 6.24975,-1.15833 6.78857,-1.69715 0.29816,-0.29815 0.26755,-0.83327 0.56571,-1.13143 1.17049,-1.17048 -0.0458,1.78866 1.13143,-0.56571 0.23433,-0.46866 0.40121,-4.4334 0.56571,-5.09143 0.12936,-0.51744 0.89291,-0.65438 1.13143,-1.13143 0.0843,-0.16866 0,-0.37714 0,-0.56571 0.18858,-0.37714 0.33182,-0.78059 0.56572,-1.13143 0.41605,-0.62407 1.36298,-1.02883 1.69714,-1.69714 0.3267,-0.65339 0,-2.70424 0,-3.39429"
       id="path710" /><path
       style="fill:#ffff00;stroke-width:0.264583"
       d="m 127.85143,174.80571 c 2.44083,-3.48092 5.08056,-5.77413 6.78857,-9.61714 0.24218,-0.54492 0.21911,-1.2119 0.56571,-1.69714 3.87647,-3.87647 0.98157,-0.50452 3.39429,-4.52572 0.3908,-0.65134 1.3583,-1.01946 1.69714,-1.69714 0.22629,-0.45257 -0.22629,-1.24457 0,-1.69714 0.14986,-0.86545 1.33935,-0.98157 1.69714,-1.69715 0.37125,-0.74249 0.2937,-2.01252 0.56572,-2.82857 0.45468,-1.36404 1.04614,-2.658 1.69714,-3.96 0.43322,-0.86643 1.00811,-0.44239 1.69715,-1.13142 0.29815,-0.29816 0.31271,-0.79411 0.56571,-1.13143 1.20309,-1.60412 3.5347,-3.97949 5.09143,-5.09143 0.48524,-0.3466 1.22009,-0.20793 1.69714,-0.56572 0.67465,-0.50599 0.53511,-1.66654 1.13143,-2.26285 0.13334,-0.13334 0.48138,0.16866 0.56571,0 0.29645,-0.59289 0,-2.1307 0,-2.82858"
       id="path712" /><path
       style="fill:#ffff00;stroke-width:0.264583"
       d="m 150.48,143.69143 c -2.45154,2.27953 -6.20775,5.04609 -7.35429,8.48571 -0.17907,0.53721 -0.4143,3.14193 -0.56571,3.39429 -1.50857,2.51428 -1.25715,0.9219 -2.26286,2.26285 -1.6403,2.18707 -3.01406,4.52109 -4.52571,6.78858 -0.62847,0.9427 -3.39429,3.39979 -3.39429,4.52571"
       id="path714" /><path
       style="fill:#ffff00;stroke-width:0.264583"
       d="m 141.42857,155.57143 c -0.94286,0.94285 -1.85146,1.92125 -2.82857,2.82857 -1.66396,1.5451 -3.35801,3.05897 -5.09143,4.52571 -1.23833,1.04782 -2.98671,1.53085 -3.96,2.82857 -1.10193,1.46924 5.09143,3.81199 5.09143,1.13143 -1.76588,-4.46574 3.37868,-3.92878 4.52571,-6.22285 0.16867,-0.33733 -0.0915,-0.76555 0,-1.13143 0.36873,-1.47492 1.48067,-2.65634 2.26286,-3.96 z"
       id="path716" /><path
       style="fill:#ffff00;stroke-width:0.264583"
       d="m 135.20571,162.36 c -1.02252,1.08535 -4.22263,2.22241 -5.09143,3.96 -0.22092,0.44185 -0.63712,2.33426 -1.13143,2.82857 -0.13333,0.13334 -0.43237,-0.13334 -0.56571,0 -0.13334,0.13334 0.1046,0.40881 0,0.56571 -0.29585,0.44379 -0.8929,0.65438 -1.13143,1.13143 -0.43764,0.8753 -0.0476,4.47808 0.56572,5.09143 0.40002,0.40002 1.29712,0.40002 1.69714,0 0.42166,-0.42166 0.23494,-1.20098 0.56571,-1.69714 0.44379,-0.66568 1.37222,-0.96606 1.69715,-1.69715 0.71679,-1.61279 0.3152,-4.59041 1.13142,-6.22285 0.67991,-1.35981 3.70516,-3.47924 2.26286,-3.96 -2.50348,-0.8345 -7.87957,10.20307 -6.78857,10.74857 1.46809,0.73405 2.87477,-2.35525 3.39429,-3.39429 0.34771,-0.69541 1.11549,-2.81263 0.56571,-2.26285 -1.14703,1.14703 -1.76037,2.7392 -2.82857,3.96 -0.52683,0.60209 -1.25336,1.03146 -1.69714,1.69714 -0.43128,0.64692 -1.11549,2.81263 -0.56572,2.26286 1.08567,-1.08568 1.5095,-2.70441 2.26286,-3.96 0.54882,-0.91471 1.78581,-1.30876 2.26286,-2.26286 0.16866,-0.33733 -0.14007,-0.78126 0,-1.13143 0.3924,-0.98101 2.9384,-5.23165 3.39428,-5.65714 4.35038,-4.06035 10.98508,-6.61703 14.14286,-11.88 1.50321,-2.50535 0.17026,-6.28324 0.56571,-9.05143 0.36774,-2.57417 1.06723,-2.82252 1.69715,-5.65714 0.12272,-0.55225 -0.1789,-1.16046 0,-1.69715 0.0596,-0.17889 0.56571,-0.18857 0.56571,0 0,1.96875 -1.34496,3.72016 -1.69714,5.65715 -0.13493,0.74211 0.23852,1.54728 0,2.26285 -1.89544,5.68632 -0.87595,0.81208 -3.39429,3.96001 -2.9264,3.658 2.09985,-0.35613 2.26286,-0.56572 0.83484,-1.07337 1.44697,-2.30644 2.26286,-3.39429 0.88367,-1.17823 1.87009,-2.27606 2.82857,-3.39428 0.17355,-0.20248 0.29903,-0.56572 0.56571,-0.56572 0.18857,0 0,0.37715 0,0.56572 0,0.56571 0.253,1.19115 0,1.69714 -0.4618,0.92361 -6.17964,10.22607 -7.35428,9.05143 -0.4741,-0.47409 2.46134,-7.58249 2.82857,-9.05143 -9.94585,4.52084 -4.67005,0.28867 -6.78857,4.52572 -0.86259,1.72518 -0.44848,-1.03466 -1.13143,1.69714 -0.13721,0.54882 0.253,1.19115 0,1.69714 -0.86259,1.72518 -0.44848,-1.03466 -1.13143,1.69715 -0.62337,2.49349 1.02209,2.14718 -1.69714,3.96"
       id="path718" /><path
       style="fill:#ffffff;stroke-width:0.264583"
       d="m 121.06285,143.69143 c -1.31999,0 -2.64807,-0.14577 -3.95999,0 -1.71483,0.19053 -0.73653,1.49969 -2.26286,2.26286 -0.33733,0.16866 -0.7941,-0.16867 -1.13143,0 -0.1103,0.0551 -0.44297,1.00867 -0.56571,1.13142 -0.46047,0.46046 -3.12645,0.99751 -3.39429,1.13143 -0.66433,0.33217 -2.16424,1.93069 -2.82857,2.26286 -0.97112,0.48556 -3.12959,0.0121 -3.96,0.56571 -4.199181,2.79946 1.75161,-1.18589 -1.69714,2.26286 -0.0644,0.0643 -4.32718,0.93289 -4.525718,1.13143 -0.133342,0.13334 0.13334,0.43237 0,0.56571 -0.133342,0.13334 -0.418465,-0.1178 -0.565716,0 -0.832969,0.66638 -1.375291,1.67115 -2.262857,2.26286 -0.178554,0.11904 -2.929472,0.44951 -3.394284,0.56571 -0.985168,0.2463 -2.01618,0.52214 -2.828573,1.13143 -0.337325,0.253 -0.214873,0.89754 -0.565713,1.13143 -0.313801,0.2092 -0.765546,-0.0915 -1.131427,0 -0.986367,0.24659 -1.842207,0.88484 -2.828574,1.13143 -0.548822,0.1372 -1.191151,-0.25299 -1.697143,0 -0.238524,0.11926 -0.312719,0.48138 -0.565713,0.56571 -0.536684,0.1789 -1.226439,-0.3138 -1.697144,0 -1.865556,1.24371 -0.994042,1.09708 -3.394284,1.69715 -0.731766,0.18294 -1.523219,-0.14793 -2.262857,0 -0.858403,0.17168 -7.6241,3.09838 -7.92,3.39428 -0.133342,0.13334 0.13334,0.43238 0,0.56572 -0.871088,0.87108 -3.00147,0.17289 -3.96,1.13142 -0.13334,0.13335 0,0.37715 0,0.56572"
       id="path720" /><path
       style="fill:#ffffff;stroke-width:0.264583"
       d="m 175.93714,129.54857 c 0.75429,1.50857 1.7995,2.90397 2.26286,4.52571 0.31082,1.0879 -0.14034,2.2716 0,3.39429 0.0523,0.4184 0.46344,0.72236 0.56571,1.13143 0.71041,2.84164 0,8.29015 0,11.31428"
       id="path848" /><path
       style="fill:#ffffff;stroke-width:0.264583"
       d="m 180.46285,152.74286 c 0.56572,1.13142 1.25299,2.20985 1.69715,3.39428 0.639,1.704 0,11.91249 0,14.14286"
       id="path850" /><ellipse
       style="fill:#ff0000;stroke-width:0.264583"
       id="path975"
       cx="112.29429"
       cy="157.83429"
       rx="10.465714"
       ry="10.748571" /><path
       style="fill:#ff0000;stroke-width:0.264583"
       id="path981"
       sodipodi:type="arc"
       sodipodi:cx="146.23715"
       sodipodi:cy="164.34"
       sodipodi:rx="6.5057139"
       sodipodi:ry="1.98"
       sodipodi:start="0"
       sodipodi:end="1.08175"
       sodipodi:arc-type="slice"
       d="m 152.74287,164.34 a 6.5057139,1.98 0 0 1 -3.44944,1.7479 l -3.05628,-1.7479 z" /><ellipse
       style="fill:#ff0000;stroke-width:0.264583"
       id="path975-0"
       cx="144.82285"
       cy="164.62285"
       rx="10.465714"
       ry="10.748571" /><path
       style="fill:#00ff00;stroke-width:0.264583"
       d="m 83.725712,165.18857 -11.314284,6.78857 c 1.769004,-1.99066 3.118875,-5.38173 5.091429,-7.35428 0.13334,-0.13334 0.408814,0.1046 0.565714,0 2.624577,0.48407 0.650664,-1.21638 1.131429,-1.69715 0.298158,-0.29815 0.833271,-0.26755 1.131429,-0.56571 0.13334,-0.13334 -0.168664,-0.48138 0,-0.56571 0.541447,-0.27073 3.797899,0.0794 3.96,0.56571 0.304061,0.91219 -0.478664,1.87099 -0.565717,2.82857 -0.09403,1.03429 0.541035,3.41897 -0.565712,4.52572 -0.13334,0.13334 -0.432374,-0.13334 -0.565714,0 -0.719216,0.71921 -1.117694,2.44685 -2.262857,2.82857 -0.35779,0.11926 -0.794102,-0.16867 -1.131429,0 -0.477052,0.23852 -0.70474,0.81141 -1.131429,1.13143 -0.337326,0.25299 -0.833271,0.26755 -1.131428,0.56571 -0.917804,0.9178 -1.491221,2.38279 -2.828572,2.82857 -0.432291,0.1441 -1.238167,0 -1.697142,0 -3.625048,0 -0.495668,-4.26532 -10e-7,-5.09143"
       id="path1133" /><path
       style="fill:#00ff00;stroke-width:0.264583"
       d="m 101.82857,171.97714 c 1.67154,0.71357 3.35021,0.56571 5.09143,0.56571 2.21584,0 4.16489,-0.12027 6.22286,0.56572 0.92341,0.30781 4.79041,0.41521 5.09142,0.56571 1.64584,0.82292 -1.96454,1.39883 -2.26285,1.69715 -1.17049,1.17048 1.78865,-0.0458 -0.56572,1.13142 -0.25348,0.12674 -12.71059,0.86656 -13.01143,0.56572 -0.0788,-0.0788 -0.53295,-4.92762 -0.56571,-5.09143 z"
       id="path1135" /><path
       style="fill:#00ff00;stroke-width:0.264583"
       d="m 130.68,156.13714 c 0.24549,2.28333 -2.3262,2.45289 -2.82857,3.96 -0.0548,0.16453 -2.13512,2.7647 -2.26286,2.82857 -0.16866,0.0843 -0.37714,0 -0.56572,0 -0.18857,0.37715 -0.26755,0.83327 -0.56571,1.13143 -0.13334,0.13334 -0.50608,-0.17889 -0.56571,0 -0.14974,0.44921 -0.17251,3.7875 0,3.96 0.22881,0.22881 7.02803,1.21822 7.35428,0.56571 0.528,-1.056 -0.528,-2.90399 0,-3.95999 0.11927,-0.23853 0.50104,-0.307 0.56572,-0.56572 0.1372,-0.54882 -0.29106,-1.21205 0,-1.69714 0.3498,-0.58302 1.2892,-0.58751 1.69714,-1.13143 0.43709,-0.58279 0.19174,-2.64635 0.56571,-3.39429 0.31334,-0.62666 0.81036,-2.34695 1.13143,-2.82857 0.1046,-0.1569 0.56572,0.18857 0.56572,0 0,-0.44172 -2.8871,0.39666 -5.09143,1.13143 z"
       id="path1137" /><path
       style="fill:#00ff00;stroke-width:0.264583"
       d="m 153.87428,144.82286 c -3.3605,-0.84013 -1.48535,-0.56572 -5.65714,-0.56572 -8.46666,0 -2.97476,0 -5.09143,0 -4.336,0 -7.84323,6.38348 -3.96,7.35429 3.08218,0.77054 6.79231,0.56571 10.18286,0.56571 0.32643,0 3.98567,0.18001 4.52571,0 0.35779,-0.11926 0,-0.75429 0,-1.13143 0,-2.07428 0,-4.14857 0,-6.22285 z"
       id="path1139" /></g></svg>
